PathFileType	4	(X/Y/Z)	c:/Users/goper/Files/vsCode/490R/osim_files/C17/C17_Fast_05.trc
DataRate	CameraRate	NumFrames	NumMarkers	Units                	OrigDataRate	OrigDataStartFrame	OrigNumFrames
250.00	250.00	4	36	mm	250.0	973	2592
                Frame#	Time	LPSIS			LASIS			LTH1			LTH2			LTH3			LTH4			LLFE			LMFE			LSH1			LSH2			LSH3			LSH4			LLMAL			LMMAL			LCAL			LMTP5			LTOE			LMTP1			RPSIS			RASIS			RTH1			RTH2			RTH3			RTH4			RLFE			RMFE			RSH1			RSH2			RSH3			RSH4			RLMAL			RMMAL			RCAL			RMTP1			RTOE			RMTP5		
		X1	Y1	Z1	X2	Y2	Z2	X3	Y3	Z3	X4	Y4	Z4	X5	Y5	Z5	X6	Y6	Z6	X7	Y7	Z7	X8	Y8	Z8	X9	Y9	Z9	X10	Y10	Z10	X11	Y11	Z11	X12	Y12	Z12	X13	Y13	Z13	X14	Y14	Z14	X15	Y15	Z15	X16	Y16	Z16	X17	Y17	Z17	X18	Y18	Z18	X19	Y19	Z19	X20	Y20	Z20	X21	Y21	Z21	X22	Y22	Z22	X23	Y23	Z23	X24	Y24	Z24	X25	Y25	Z25	X26	Y26	Z26	X27	Y27	Z27	X28	Y28	Z28	X29	Y29	Z29	X30	Y30	Z30	X31	Y31	Z31	X32	Y32	Z32	X33	Y33	Z33	X34	Y34	Z34	X35	Y35	Z35	X36	Y36	Z36

973	3.88800	1672.10876	1037.78601	344.73828	0.00000	0.00000	0.00000	0.00000	0.00000	0.00000	0.00000	0.00000	0.00000	1369.45532	654.62848	447.52640	0.00000	0.00000	0.00000	1330.27722	492.36398	410.99908	1337.41101	492.50543	287.77875	1313.45044	257.98303	403.48209	1296.22034	216.41646	399.81741	1256.51257	277.21887	403.96414	1246.75110	231.00967	397.74078	1239.49475	86.74808	383.13309	1231.47681	101.84307	293.64548	1308.62671	37.98426	336.29654	1114.43896	56.37044	391.68890	1068.43652	101.62761	329.91351	1084.31641	76.29071	281.05350	1671.56445	1035.02966	270.32794	0.00000	0.00000	0.00000	1646.45618	731.38153	102.54154	1662.80212	688.79541	109.21164	1594.02161	712.92657	107.04065	1612.65576	666.13251	114.28670	0.00000	0.00000	0.00000	1726.46924	492.23621	257.35461	1916.01428	363.25858	140.50073	1940.03528	327.37411	154.83733	0.00000	0.00000	0.00000	0.00000	0.00000	0.00000	0.00000	0.00000	0.00000	2008.66553	187.17236	279.22150	2115.23950	213.10179	241.54254	0.00000	0.00000	0.00000	0.00000	0.00000	0.00000	0.00000	0.00000	0.00000
974	3.89200	1664.00439	1037.52222	345.06802	0.00000	0.00000	0.00000	0.00000	0.00000	0.00000	0.00000	0.00000	0.00000	0.00000	0.00000	0.00000	1409.05627	627.73199	442.53830	1320.46838	493.76178	410.06046	1332.30432	491.67261	287.06952	1307.09753	259.47394	403.76596	1290.41235	217.35623	400.20880	0.00000	0.00000	0.00000	1240.97266	231.12692	397.56686	1237.69165	86.41110	383.20834	1229.16138	101.29871	293.80475	1307.88989	38.92581	336.47211	1112.92419	52.78762	392.08926	1066.13635	97.57127	330.41760	1082.32214	72.30308	281.56424	1663.68018	1034.34521	270.39926	0.00000	0.00000	0.00000	1639.09106	731.19385	101.96341	1653.65833	687.62524	109.27757	1584.49841	712.04437	107.42919	1605.21545	668.97351	110.55918	0.00000	0.00000	0.00000	1715.69470	490.46466	256.60736	1907.45911	364.72549	140.26013	1931.86560	329.04688	154.47499	0.00000	0.00000	0.00000	0.00000	0.00000	0.00000	0.00000	0.00000	0.00000	2002.04041	189.17296	278.40341	2107.71826	218.50331	241.23253	0.00000	0.00000	0.00000	1404.57263	643.18506	449.45767	0.00000	0.00000	0.00000
975	3.89600	1656.02771	1037.34009	345.29813	0.00000	0.00000	0.00000	0.00000	0.00000	0.00000	1356.16199	654.49011	449.58081	0.00000	0.00000	0.00000	1402.26648	628.22443	442.73807	1312.35706	494.66241	408.77228	1326.41797	491.04749	286.87265	1301.12695	260.71970	404.25372	1285.82385	218.74294	401.09863	1240.03772	274.99655	400.23340	1235.60815	231.20831	397.06085	1236.17358	86.27746	383.11258	1227.05737	101.01330	293.70819	1307.02795	39.84423	336.38345	1112.01318	49.85910	392.73526	1063.57385	92.82305	331.58054	1080.04834	68.00651	282.57828	1655.78882	1033.85742	270.31998	0.00000	0.00000	0.00000	1629.49121	730.07123	102.41913	1643.00085	685.86664	109.60164	1574.82080	711.23608	107.86802	1595.30396	668.04980	110.79178	0.00000	0.00000	0.00000	1704.43457	488.53012	255.86382	1898.54626	366.23944	139.95390	1923.43237	330.85190	154.08577	0.00000	0.00000	0.00000	0.00000	0.00000	0.00000	0.00000	0.00000	0.00000	1995.22522	191.27316	277.52505	2099.83325	224.02715	240.86699	0.00000	0.00000	0.00000	0.00000	0.00000	0.00000	0.00000	0.00000	0.00000
976	3.90000	1648.20581	1037.30835	345.43112	0.00000	0.00000	0.00000	0.00000	0.00000	0.00000	0.00000	0.00000	0.00000	1351.97766	654.73926	448.74738	0.00000	0.00000	0.00000	1303.49634	496.25186	408.09332	1320.73059	491.83832	286.39206	1295.62976	261.76349	404.85355	1281.01721	219.53262	401.42899	1234.39746	274.87836	399.68585	1230.88879	231.28053	396.73868	1234.47949	86.20024	382.87158	1224.80872	100.59354	293.44293	1306.24316	40.78866	336.27795	1111.37659	47.07981	393.31424	1061.38696	88.65000	332.39709	1078.77271	65.02572	282.80322	1647.83020	1033.49426	270.16238	0.00000	0.00000	0.00000	1619.78638	728.88770	102.82475	1633.96423	685.35596	109.88832	1565.00659	710.43555	108.31974	1585.07324	667.02020	111.23315	0.00000	0.00000	0.00000	1692.96997	486.63837	255.29698	1889.22083	367.65576	139.52750	1914.65796	332.60867	153.60406	0.00000	0.00000	0.00000	0.00000	0.00000	0.00000	0.00000	0.00000	0.00000	1988.10205	193.41653	276.58344	2091.51270	229.62321	240.33673	0.00000	0.00000	0.00000	1394.45850	629.20972	442.78922	0.00000	0.00000	0.00000
